<svg width="40" height="36" xmlns="http://www.w3.org/2000/svg">

 <g>
  <title>Layer 1</title>
  <g stroke="null" id="svg_1" data-name="Grupo 2">
   <path stroke="null" id="svg_2" d="m0.5538,-1.02848l39.7057,0l0,39.7057l-39.7057,0l0,-39.7057z" fill="none" data-name="Retângulo 2"/>
   <path stroke="null" id="svg_3" fill="#3c3c3c" d="m12.87485,33.1326a3.92614,3.92614 0 0 1 3.1065,-4.14074l0.173,-0.01418l4.37708,0a4.90365,4.90365 0 0 0 4.74672,-5.03695l0,-4.59546a4.90365,4.90365 0 0 0 -4.74672,-5.03695l-10.21476,0a4.90365,4.90365 0 0 0 -4.74672,5.03695l0,4.59546a4.9046,4.9046 0 0 0 4.74672,5.03695l0.73077,0a1.09002,1.09002 0 1 1 0,2.18003l-0.73077,0a7.0903,7.0903 0 0 1 -6.92675,-7.21698l0,-4.59546a7.0903,7.0903 0 0 1 6.92675,-7.21698l10.21004,0a7.08274,7.08274 0 0 1 6.92581,7.21698l0,4.59546a7.08463,7.08463 0 0 1 -6.92675,7.21698l-4.25985,0c-0.29212,0.07847 -1.21197,0.44716 -1.21197,1.97394a1.09002,1.09002 0 0 1 -2.18003,0l0.00095,0.00095zm15.58921,-6.54104a1.08907,1.08907 0 0 1 1.09002,-1.09002a8.12076,8.12076 0 0 0 5.06909,-1.74138c1.3689,-1.09569 1.471,-2.73024 1.471,-5.09651l0,-7.9298c0,-4.01406 -4.15019,-4.85544 -7.63011,-4.85544l-15.26306,0c-3.48087,0 -7.63106,0.84138 -7.63106,4.85544a1.09002,1.09002 0 1 1 -2.18003,0c0,-4.47067 3.5754,-7.03547 9.81109,-7.03547l15.26306,0c6.23474,0 9.81014,2.5648 9.81014,7.03642l0,7.92885c0,2.21217 0,4.96416 -2.28875,6.79724a10.31214,10.31214 0 0 1 -6.42854,2.22068a1.08813,1.08813 0 0 1 -1.09285,-1.09002zm-7.632,-5.45103a1.09002,1.09002 0 1 1 1.08718,1.08718a1.08907,1.08907 0 0 1 -1.08718,-1.08718zm-6.54104,0a1.09002,1.09002 0 1 1 1.09002,1.08718a1.09002,1.09002 0 0 1 -1.09002,-1.08718zm-6.54104,0a1.09096,1.09096 0 1 1 1.09096,1.08718a1.09002,1.09002 0 0 1 -1.09096,-1.08718z" data-name="União 1"/>
  </g>
 </g>
</svg>