<svg xmlns="http://www.w3.org/2000/svg" width="32" height="32">
  <g data-name="Grupo 2">
    <path data-name="Retângulo 2" fill="none" d="M0 0h42v42H0z"/>
    <path data-name="União 1" d="M13.033 36.135a4.153 4.153 0 013.286-4.38l.183-.015h4.63a5.187 5.187 0 005.021-5.328v-4.861a5.187 5.187 0 00-5.021-5.328H10.327a5.187 5.187 0 00-5.021 5.328v4.861a5.188 5.188 0 005.021 5.328h.773a1.153 1.153 0 110 2.306h-.773A7.5 7.5 0 013 26.412v-4.861a7.5 7.5 0 017.327-7.634h10.8a7.492 7.492 0 017.326 7.634v4.861a7.494 7.494 0 01-7.327 7.634H16.62c-.309.083-1.282.473-1.282 2.088a1.153 1.153 0 01-2.306 0zm16.49-6.919a1.152 1.152 0 011.153-1.153 8.59 8.59 0 005.362-1.842c1.448-1.159 1.556-2.888 1.556-5.391v-8.388c0-4.246-4.39-5.136-8.071-5.136H13.378c-3.682 0-8.072.89-8.072 5.136a1.153 1.153 0 11-2.306 0C3 7.713 6.782 5 13.378 5h16.145C36.118 5 39.9 7.713 39.9 12.443v8.387c0 2.34 0 5.251-2.421 7.19a10.908 10.908 0 01-6.8 2.349 1.151 1.151 0 01-1.156-1.153zM21.45 23.45a1.153 1.153 0 111.15 1.15 1.152 1.152 0 01-1.15-1.15zm-6.919 0a1.153 1.153 0 111.153 1.15 1.153 1.153 0 01-1.153-1.15zm-6.919 0a1.154 1.154 0 111.154 1.15 1.153 1.153 0 01-1.154-1.15z" fill="#3c3c3c"/>
  </g>
</svg>