<svg width="40" height="36" xmlns="http://www.w3.org/2000/svg">
  <g stroke="null" data-name="Grupo 2">
    <path d="M.554-1.028H40.26v39.705H.553V-1.028z" fill="none" data-name="Ret\xE2ngulo 2"></path>
    <path fill="#3c3c3c"
      d="M12.875 33.133a3.926 3.926 0 013.106-4.141l.173-.014h4.377a4.904 4.904 0 004.747-5.037v-4.596a4.904 4.904 0 00-4.747-5.037H10.317a4.904 4.904 0 00-4.747 5.037v4.596a4.905 4.905 0 004.747 5.037h.73a1.09 1.09 0 110 2.18h-.73A7.09 7.09 0 013.39 23.94v-4.596a7.09 7.09 0 016.927-7.217h10.21a7.083 7.083 0 016.926 7.217v4.596a7.085 7.085 0 01-6.927 7.217h-4.26c-.292.078-1.212.447-1.212 1.974a1.09 1.09 0 01-2.18 0h0zm15.59-6.541a1.09 1.09 0 011.09-1.09 8.12 8.12 0 005.068-1.742c1.37-1.096 1.471-2.73 1.471-5.096v-7.93c0-4.014-4.15-4.856-7.63-4.856H13.201c-3.48 0-7.631.842-7.631 4.856a1.09 1.09 0 11-2.18 0c0-4.47 3.575-7.036 9.811-7.036h15.263c6.235 0 9.81 2.565 9.81 7.037v7.929c0 2.212 0 4.964-2.289 6.797a10.312 10.312 0 01-6.428 2.22 1.088 1.088 0 01-1.093-1.09zm-7.633-5.451a1.09 1.09 0 111.087 1.087 1.09 1.09 0 01-1.087-1.087zm-6.541 0a1.09 1.09 0 111.09 1.087 1.09 1.09 0 01-1.09-1.087zm-6.541 0a1.091 1.091 0 111.09 1.087 1.09 1.09 0 01-1.09-1.087z"
      data-name="Uni\xE3o 1">
    </path>
  </g>
</svg>