<?xml version="1.0" encoding="UTF-8" standalone="no"?>
<svg
   xmlns:dc="http://purl.org/dc/elements/1.1/"
   xmlns:cc="http://creativecommons.org/ns#"
   xmlns:rdf="http://www.w3.org/1999/02/22-rdf-syntax-ns#"
   xmlns:svg="http://www.w3.org/2000/svg"
   xmlns="http://www.w3.org/2000/svg"
   xmlns:sodipodi="http://sodipodi.sourceforge.net/DTD/sodipodi-0.dtd"
   xmlns:inkscape="http://www.inkscape.org/namespaces/inkscape"
   inkscape:version="1.0 (4035a4fb49, 2020-05-01)"
   sodipodi:docname="logo-uai.svg"
   id="svg28"
   version="1.1"
   viewBox="0 0 98 60"
   height="60"
   width="98">
  <metadata
     id="metadata32">
    <rdf:RDF>
      <cc:Work
         rdf:about="">
        <dc:format>image/svg+xml</dc:format>
        <dc:type
           rdf:resource="http://purl.org/dc/dcmitype/StillImage" />
      </cc:Work>
    </rdf:RDF>
  </metadata>
  <sodipodi:namedview
     inkscape:current-layer="g26"
     inkscape:window-maximized="1"
     inkscape:window-y="24"
     inkscape:window-x="28"
     inkscape:cy="44.088745"
     inkscape:cx="61.740227"
     inkscape:zoom="5.6568542"
     showgrid="false"
     id="namedview30"
     inkscape:window-height="876"
     inkscape:window-width="1412"
     inkscape:pageshadow="2"
     inkscape:pageopacity="0"
     guidetolerance="10"
     gridtolerance="10"
     objecttolerance="10"
     borderopacity="1"
     bordercolor="#666666"
     pagecolor="#ffffff" />
  <defs
     id="defs12">
    <radialGradient
       gradientUnits="userSpaceOnUse"
       gradientTransform="scale(0.89133039,1.1219184)"
       fy="29.350109"
       fx="101.18948"
       r="39.247842"
       cy="29.350109"
       cx="101.18948"
       id="a">
      <stop
         id="stop2"
         stop-color="#C8AF28"
         offset="0%" />
      <stop
         id="stop4"
         stop-color="#BD813C"
         offset="100%" />
    </radialGradient>
    <linearGradient
       gradientUnits="userSpaceOnUse"
       x2="37.000873"
       gradientTransform="scale(2.385268,0.4192401)"
       y2="120.43514"
       y1="120.43514"
       x1="11.265401"
       id="b">
      <stop
         id="stop7"
         stop-color="#BD813C"
         offset="0%" />
      <stop
         id="stop9"
         stop-color="#CAAF3F"
         offset="100%" />
    </linearGradient>
    <radialGradient
       id="SVGID_2_"
       cx="135.76041"
       cy="169.8311"
       r="102.9747"
       gradientTransform="matrix(0.9382,0,0,0.8902,-103.6386,-40.9915)"
       gradientUnits="userSpaceOnUse">
      <stop
         offset="0.2796"
         style="stop-color:#0053A2"
         id="stop17" />
      <stop
         offset="0.4293"
         style="stop-color:#0057A5"
         id="stop19" />
      <stop
         offset="0.5652"
         style="stop-color:#0062AF"
         id="stop21" />
      <stop
         offset="0.6951"
         style="stop-color:#0074BF"
         id="stop23" />
      <stop
         offset="0.8011"
         style="stop-color:#0089D1"
         id="stop25" />
      <stop
         offset="1"
         style="stop-color:#FFFFFF"
         id="stop27" />
    </radialGradient>
    <radialGradient
       id="SVGID_1_"
       cx="165.3584"
       cy="132.7294"
       r="143.23109"
       fx="151.64751"
       fy="74.929604"
       gradientTransform="matrix(0.806,0,0,0.806,-114.8015,-8.6039999)"
       gradientUnits="userSpaceOnUse">
      <stop
         offset="0"
         style="stop-color:#0086C9"
         id="stop4-3" />
      <stop
         offset="0.261"
         style="stop-color:#0182C6"
         id="stop6" />
      <stop
         offset="0.5183"
         style="stop-color:#0276BD"
         id="stop8" />
      <stop
         offset="0.7734"
         style="stop-color:#0563AD"
         id="stop10" />
      <stop
         offset="0.9857"
         style="stop-color:#084C9C"
         id="stop12" />
    </radialGradient>
  </defs>
  <g
     transform="translate(0,61.547005)"
     id="g26"
     fill-rule="evenodd"
     fill="none" />
  <g
     style="stroke-width:2.95396"
     transform="matrix(0.338529,0,0,0.338529,41.029576,-6.7303965)"
     id="g935">
    <path
       id="path15"
       d="m 23.54,20.125 c 48.73,0 88.47,39.7 88.47,88.37 0,48.68 -39.74,88.38 -88.47,88.38 -48.72,0 -88.47,-39.7 -88.47,-88.38 0,-48.67 39.74,-88.37 88.47,-88.37 z"
       class="st0"
       style="clip-rule:evenodd;fill:url(#SVGID_1_);fill-rule:evenodd;stroke-width:2.95396" />
    <path
       id="path30"
       d="m 104.74,97.305 c 0,42.19 -36.04,76.38 -80.5,76.38 -44.46,0 -80.51,-34.2 -80.51,-76.38 0,-42.19 36.05,-76.39 80.51,-76.39 44.45,0 80.5,34.2 80.5,76.39 z"
       class="st1"
       style="opacity:0.25;fill:url(#SVGID_2_);stroke-width:2.95396" />
    <path
       id="path34"
       d="m 137.48,73.615 -31.81,4.09 0.41,2.55 c 0.05,0.28 0.29,0.49 0.58,0.47 1.32,-0.07 4.93,-0.15 6.7,0.91 2.19,1.31 1.12,5.67 1.12,5.67 l -12.66,38.21 c 0,0 -1.65,4.59 -1.02,8.62 -2.5,1.03 -8.16,3.17 -11.96,3.17 -5,0 -6.98,-1.97 -8.83,-4.58 -1.85,-2.62 -0.79,-6.34 -0.79,-6.34 l 14.82,-49.06 c 0.17,-0.57 -0.26,-1.15 -0.86,-1.15 H 72.19 c -0.44,0 -0.83,0.26 -1.01,0.67 l -4.24,10.03 c 0,0 -1.35,-2.18 -2.35,-3.28 -1,-1.09 -2.54,-3.06 -5.78,-4.8 -3.24,-1.75 -8.48,-3.93 -14.8,-4.36 -6.32,-0.44 -12.3,0.22 -22.16,2.62 -9.88,2.4 -17.72,7.42 -24.02,12.66 -6.31,5.24 -9.73,13.1 -11.22,17.03 -1.49,3.93 -1.06,11.35 -1.06,11.35 0,0 -3.16,4.58 -5.24,7.21 -2.08,2.62 -5.21,5.68 -7.16,5.68 -1.96,0 -2.11,-3.27 -1.52,-5.68 0.56,-2.27 11.09,-43.77 12.23,-48.29 0.05,-0.21 -0.11,-0.4 -0.32,-0.39 l -21.74,0.21 c -0.18,0 -0.33,0.12 -0.38,0.3 l -5.81,21.98 c 0,0 -5.79,10.04 -8.65,13.54 -2.86,3.49 -6.68,8.08 -9.4,10.92 -2.72,2.84 -5.18,4.15 -6.89,4.36 -1.71,0.22 -3.4,-1.31 -2.71,-4.81 0.59,-2.94 8.91,-35.89 11.49,-46.11 l 0.31,-1.21 c 0.22,-0.86 -0.5,-1.68 -1.38,-1.57 l -31.64,3.92 -0.17,1.68 c -0.07,0.73 0.46,1.38 1.19,1.43 0.94,0.08 2.29,0.24 3.72,0.59 2.67,0.65 3.15,5.02 2.43,8.3 -0.72,3.27 -7.64,29.03 -8.87,33.62 -1.23,4.59 -1.6,9.17 -0.08,11.13 1.52,1.97 4.15,6.12 12.21,6.33 8.07,0.22 12.94,-4.8 18.12,-8.95 5.18,-4.14 16.19,-18.12 16.19,-18.12 0,0 -2.24,8.95 -3,13.75 -0.76,4.81 0.36,8.95 2.73,10.7 2.37,1.74 6,3.06 12.01,2.4 6.01,-0.66 11.74,-3.71 15.9,-7.21 4.15,-3.49 7.63,-10.92 7.63,-10.92 0,0 1.49,3.49 3.05,5.68 1.56,2.19 4.16,5.89 9.71,8.74 5.55,2.84 13.52,5.9 23.33,6.11 9.81,0.22 13.98,-1.31 21.59,-4.8 7.62,-3.49 13.09,-10.26 13.09,-10.26 0,0 0.67,3.71 2.7,6.11 2.03,2.41 5.21,5.24 11.29,6.99 6.09,1.75 12.31,2.84 19.21,2.4 6.1,-0.39 13.08,-3.16 14.62,-3.8 0.92,0.45 1.85,0.75 2.65,0.96 2.5,0.66 7.77,0.87 10.61,-0.44 2.85,-1.31 7.38,-4.36 9.99,-7.2 2.27,-2.47 6.47,-9.54 7.54,-11.36 0.14,-0.24 0.04,-0.53 -0.2,-0.65 l -1.6,-0.8 c -0.32,-0.16 -0.7,-0.05 -0.89,0.25 -0.99,1.6 -4,6.4 -5.53,8.2 -1.84,2.18 -3.23,3.06 -5.44,1.53 -2.21,-1.53 -1.26,-5.24 -1.26,-5.24 l 16.55,-51.32 c 0.08,-0.21 -0.08,-0.4 -0.28,-0.37 z m -77.65,25.7 c -1.02,7.64 -6.22,18.34 -10.46,24.45 -4.25,6.11 -9.23,9.82 -13.63,11.13 -4.41,1.31 -9.74,2.19 -16.37,-0.65 -6.64,-2.84 -8.18,-8.52 -6.5,-18.12 1.68,-9.61 7.69,-20.62 11.5,-25.32 5.59,-6.92 18.31,-12.63 28.02,-8.08 4.69,2.2 8.45,8.95 7.44,16.59 z"
       class="st2"
       style="fill:#ffd31a;fill-opacity:1;stroke-width:2.95396" />
    <path
       class="st2"
       d="m 133.7,50.495 c -5.71,0.36 -10.8,4.81 -11.34,9.89 -0.53,5.09 3.68,8.94 9.39,8.58 5.71,-0.36 10.8,-4.81 11.33,-9.89 0.54,-5.09 -3.67,-8.94 -9.38,-8.58 z"
       id="path44"
       style="fill:#ffd31a;fill-opacity:1;stroke-width:2.95396" />
  </g>
</svg>
