<svg xmlns="http://www.w3.org/2000/svg" width="37.881" height="37.881" viewBox="0 0 37.881 37.881"><defs><style>.a{fill:#fff;}</style></defs><g transform="translate(18.94) rotate(45)"><g transform="translate(0 0)"><path class="a" d="M26.781.506a.545.545,0,0,0-.018-.091A.6.6,0,0,0,26.724.32C26.716.3,26.713.285,26.7.269a.358.358,0,0,0-.024-.027.6.6,0,0,0-.066-.074A.57.57,0,0,0,26.538.1C26.528.1,26.522.086,26.512.08a.552.552,0,0,0-.051-.02.606.606,0,0,0-.1-.039.613.613,0,0,0-.086-.015.6.6,0,0,0-.1,0,.523.523,0,0,0-.094.016.536.536,0,0,0-.06.01L.394,8.763a.582.582,0,0,0-.02,1.094l11.973,4.6,5.174,11.977a.583.583,0,0,0,.535.351h.029a.583.583,0,0,0,.526-.4L26.764.754A.436.436,0,0,0,26.772.7a.55.55,0,0,0,.013-.1A.58.58,0,0,0,26.781.506ZM2.291,9.346l21.734-7.41L12.64,13.322Zm15.681,15.2-4.5-10.409L24.928,2.681Z"/></g></g></svg>
